<svg xmlns="http://www.w3.org/2000/svg" width="1400" height="900" viewBox="0 0 1400 900" role="img" aria-label="دورة مراجعة السلامة">
  <rect width="1400" height="900" fill="#0f0f1e"/>
  <text x="700" y="85" fill="#D4AF37" font-size="42" text-anchor="middle" font-family="Tajawal, Arial">دورة مراجعة السلامة (PDCA)</text>

  <g font-family="Tajawal, Arial" font-size="30" text-anchor="middle">
    <circle cx="700" cy="450" r="280" fill="none" stroke="#B87333" stroke-width="6"/>

    <rect x="610" y="160" width="180" height="70" rx="14" fill="#1f1f2e" stroke="#10b981"/>
    <text x="700" y="206" fill="#e0e0e0">خطط</text>

    <rect x="980" y="360" width="180" height="70" rx="14" fill="#1f1f2e" stroke="#10b981"/>
    <text x="1070" y="406" fill="#e0e0e0">نفّذ</text>

    <rect x="610" y="670" width="180" height="70" rx="14" fill="#1f1f2e" stroke="#f59e0b"/>
    <text x="700" y="716" fill="#e0e0e0">تحقّق</text>

    <rect x="240" y="360" width="180" height="70" rx="14" fill="#1f1f2e" stroke="#f59e0b"/>
    <text x="330" y="406" fill="#e0e0e0">حسّن</text>
  </g>

  <g stroke="#D4AF37" stroke-width="4" fill="none">
    <path d="M 790 195 Q 930 240 1030 350"/>
    <path d="M 1065 435 Q 1040 570 790 690"/>
    <path d="M 610 690 Q 360 570 335 435"/>
    <path d="M 370 350 Q 470 240 610 195"/>
  </g>

  <text x="700" y="840" fill="#a0a0a0" font-size="26" text-anchor="middle" font-family="Tajawal, Arial">مراجعة دورية: يومية تشغيلية — أسبوعية إشرافية — شهرية إدارية</text>
</svg>
