<?xml version="1.0" encoding="UTF-8"?>
<!--
    شعار شيخة المُتقَن — الإصدار المُحسَّن V4
    SHEIKHA Premium Emblem — Enhanced V4

    بسم الله الرحمن الرحيم

    ═══ المعنى / The Meaning ═══

    ① النجمة الثمانية (مربعان متقاطعان بزاوية ٤٥°):
       → الإتقان الهندسي الإسلامي الذي زيّن المساجد والقصور
       → الثمانية ترمز إلى أبواب الجنة الثمانية
       → ﴿ الَّذِي أَحْسَنَ كُلَّ شَيْءٍ خَلَقَهُ ﴾ — السجدة ٧

    ② الميزان النبوي (عمود + ذراعان + كفّتان):
       → العدل والقسط في كل معاملة
       → لا غش ولا بخس ولا تطفيف
       → ﴿ وَأَقِيمُوا الْوَزْنَ بِالْقِسْطِ وَلَا تُخْسِرُوا الْمِيزَانَ ﴾ — الرحمن ٩

    ③ الجوهرة الماسية (الشكل الماسي المركزي):
       → المعادن الثمينة — الذهب والفضة والنحاس والحديد
       → ﴿ وَأَنزَلْنَا الْحَدِيدَ فِيهِ بَأْسٌ شَدِيدٌ وَمَنَافِعُ لِلنَّاسِ ﴾ — الحديد ٢٥

    ④ تاج الحكمة (الكرة المضيئة فوق العمود):
       → الحكمة والبصيرة والريادة
       → ﴿ يُؤْتِي الْحِكْمَةَ مَن يَشَاءُ ﴾ — البقرة ٢٦٩

    ⑤ القاعدة الراسخة:
       → الكتاب والسنة — أساس لا يهتز
       → «تركتُ فيكم ما إن تمسّكتم به لن تضلّوا — كتابَ الله وسُنّتي»

    ⑥ حرف الشين (ش):
       → هوية شيخة — أول سوق إسلامي رقمي للمعادن

    ⑦ نقاط البوصلة الأربع:
       → الشمول العالمي — شرق وغرب وشمال وجنوب
       → ﴿ وَمَا أَرْسَلْنَاكَ إِلَّا رَحْمَةً لِّلْعَالَمِينَ ﴾ — الأنبياء ١٠٧

    ⑧ التدرج الذهبي-النحاسي:
       → تنوّع المعادن: ذهب → فضة → نحاس → حديد

    ⑨ الدائرة المحيطة مع ١٢ نقطة:
       → الإحاطة والشمول + أشهر السنة القمرية

    ═══ الخلاصة ═══
    نظامٌ ربّاني + عدلٌ نبوي + معادنُ نفيسة + حكمةٌ عالية + أساسٌ راسخ + شمولٌ عالمي = شيخة

    © جميع الحقوق محفوظة — سلمان أحمد بن سلمان الراجح
-->
<svg xmlns="http://www.w3.org/2000/svg" viewBox="0 0 400 400">
    <defs>
        <!-- ═══ التدرجات الذهبية الفاخرة ═══ -->
        <linearGradient id="gold" x1="15%" y1="0%" x2="85%" y2="100%">
            <stop offset="0%" stop-color="#FBF0C8"/>
            <stop offset="25%" stop-color="#E8C94A"/>
            <stop offset="50%" stop-color="#D4AF37"/>
            <stop offset="75%" stop-color="#C49B2A"/>
            <stop offset="100%" stop-color="#A8882B"/>
        </linearGradient>
        <linearGradient id="goldV" x1="50%" y1="0%" x2="50%" y2="100%">
            <stop offset="0%" stop-color="#FFFDE8"/>
            <stop offset="40%" stop-color="#F5E6A3"/>
            <stop offset="100%" stop-color="#D4AF37"/>
        </linearGradient>
        <linearGradient id="goldH" x1="0%" y1="50%" x2="100%" y2="50%">
            <stop offset="0%" stop-color="#A8882B"/>
            <stop offset="30%" stop-color="#D4AF37"/>
            <stop offset="50%" stop-color="#F0D060"/>
            <stop offset="70%" stop-color="#D4AF37"/>
            <stop offset="100%" stop-color="#A8882B"/>
        </linearGradient>
        <linearGradient id="pillar" x1="0%" y1="0%" x2="100%" y2="0%">
            <stop offset="0%" stop-color="#A8882B"/>
            <stop offset="35%" stop-color="#D4AF37"/>
            <stop offset="50%" stop-color="#F5E6A3"/>
            <stop offset="65%" stop-color="#D4AF37"/>
            <stop offset="100%" stop-color="#8B7224"/>
        </linearGradient>
        <linearGradient id="arm" x1="0%" y1="0%" x2="100%" y2="0%">
            <stop offset="0%" stop-color="#8B7224"/>
            <stop offset="20%" stop-color="#C49B2A"/>
            <stop offset="50%" stop-color="#F0D060"/>
            <stop offset="80%" stop-color="#C49B2A"/>
            <stop offset="100%" stop-color="#8B7224"/>
        </linearGradient>
        <radialGradient id="gemCore" cx="42%" cy="38%" r="55%">
            <stop offset="0%" stop-color="#FFFEF5"/>
            <stop offset="25%" stop-color="#FBF0C8"/>
            <stop offset="60%" stop-color="#E8C94A"/>
            <stop offset="100%" stop-color="#D4AF37"/>
        </radialGradient>
        <radialGradient id="crownCore" cx="45%" cy="35%" r="55%">
            <stop offset="0%" stop-color="#FFFDE8"/>
            <stop offset="50%" stop-color="#F5E6A3"/>
            <stop offset="100%" stop-color="#D4AF37"/>
        </radialGradient>
        <radialGradient id="bgGlow" cx="50%" cy="50%" r="50%">
            <stop offset="0%" stop-color="rgba(212,175,55,0.04)"/>
            <stop offset="70%" stop-color="rgba(212,175,55,0.01)"/>
            <stop offset="100%" stop-color="transparent"/>
        </radialGradient>
        <radialGradient id="panGlow" cx="50%" cy="30%" r="60%">
            <stop offset="0%" stop-color="#E8C94A" stop-opacity="0.15"/>
            <stop offset="100%" stop-color="#D4AF37" stop-opacity="0"/>
        </radialGradient>

        <!-- ═══ فلاتر التوهج والظل ═══ -->
        <filter id="gl" x="-40%" y="-40%" width="180%" height="180%">
            <feGaussianBlur stdDeviation="2" result="b"/>
            <feMerge><feMergeNode in="b"/><feMergeNode in="SourceGraphic"/></feMerge>
        </filter>
        <filter id="glBig" x="-50%" y="-50%" width="200%" height="200%">
            <feGaussianBlur stdDeviation="4" result="b"/>
            <feMerge><feMergeNode in="b"/><feMergeNode in="SourceGraphic"/></feMerge>
        </filter>
        <filter id="glSoft" x="-60%" y="-60%" width="220%" height="220%">
            <feGaussianBlur stdDeviation="8" result="b"/>
            <feMerge><feMergeNode in="b"/><feMergeNode in="SourceGraphic"/></feMerge>
        </filter>
        <filter id="shadow" x="-10%" y="-5%" width="120%" height="115%">
            <feDropShadow dx="0" dy="2" stdDeviation="4" flood-color="#000" flood-opacity="0.15"/>
        </filter>
    </defs>

    <!-- ═══ الخلفية ═══ -->
    <rect width="400" height="400" fill="none"/>
    <circle cx="200" cy="200" r="198" fill="url(#bgGlow)"/>

    <!-- ═══════════════════════════════════════════════════ -->
    <!-- ═══ الطبقة ١: الهالة الكونية الخارجية ═══ -->
    <!-- ═══════════════════════════════════════════════════ -->
    <circle cx="200" cy="200" r="195" stroke="url(#gold)" stroke-width="0.4" fill="none" opacity="0.08" stroke-dasharray="2 6"/>
    <circle cx="200" cy="200" r="190" stroke="url(#gold)" stroke-width="0.5" fill="none" opacity="0.1" stroke-dasharray="4 10"/>

    <!-- ═══ الطبقة ٢: الإطار الزخرفي المزدوج ═══ -->
    <circle cx="200" cy="200" r="184" stroke="url(#gold)" stroke-width="2.5" fill="none" opacity="0.25"/>
    <circle cx="200" cy="200" r="181" stroke="url(#gold)" stroke-width="0.6" fill="none" opacity="0.1"/>
    <circle cx="200" cy="200" r="178" stroke="url(#gold)" stroke-width="0.4" fill="none" opacity="0.06" stroke-dasharray="1.5 3"/>

    <!-- ═══ ١٢ نقطة زخرفية على الإطار = أشهر السنة القمرية ═══ -->
    <circle cx="200" cy="16" r="3" fill="url(#goldV)" opacity="0.4"/>
    <circle cx="292" cy="30" r="2.5" fill="url(#gold)" opacity="0.25"/>
    <circle cx="370" cy="108" r="2.5" fill="url(#gold)" opacity="0.25"/>
    <circle cx="384" cy="200" r="3" fill="url(#gold)" opacity="0.3"/>
    <circle cx="370" cy="292" r="2.5" fill="url(#gold)" opacity="0.25"/>
    <circle cx="292" cy="370" r="2.5" fill="url(#gold)" opacity="0.25"/>
    <circle cx="200" cy="384" r="3" fill="url(#gold)" opacity="0.3"/>
    <circle cx="108" cy="370" r="2.5" fill="url(#gold)" opacity="0.25"/>
    <circle cx="30" cy="292" r="2.5" fill="url(#gold)" opacity="0.25"/>
    <circle cx="16" cy="200" r="3" fill="url(#gold)" opacity="0.3"/>
    <circle cx="30" cy="108" r="2.5" fill="url(#gold)" opacity="0.25"/>
    <circle cx="108" cy="30" r="2.5" fill="url(#gold)" opacity="0.25"/>

    <!-- ═══════════════════════════════════════════════════ -->
    <!-- ═══ الطبقة ٣: النجمة الثمانية — الإتقان الإلهي ═══ -->
    <!-- ═══════════════════════════════════════════════════ -->
    <!-- المربع الأول (٠°) -->
    <rect x="82" y="82" width="236" height="236" rx="6" fill="url(#gold)" opacity="0.04"/>
    <rect x="82" y="82" width="236" height="236" rx="6" stroke="url(#gold)" stroke-width="1.6" fill="none" opacity="0.22"/>
    <!-- المربع الثاني (٤٥°) -->
    <rect x="82" y="82" width="236" height="236" rx="6" fill="url(#gold)" opacity="0.03" transform="rotate(45 200 200)"/>
    <rect x="82" y="82" width="236" height="236" rx="6" stroke="url(#gold)" stroke-width="1.6" fill="none" opacity="0.22" transform="rotate(45 200 200)"/>

    <!-- ═══ الطبقة ٤: النجمة الثمانية الداخلية ═══ -->
    <rect x="120" y="120" width="160" height="160" rx="4" fill="url(#gold)" opacity="0.03" transform="rotate(0 200 200)"/>
    <rect x="120" y="120" width="160" height="160" rx="4" stroke="url(#gold)" stroke-width="1" fill="none" opacity="0.14" transform="rotate(0 200 200)"/>
    <rect x="120" y="120" width="160" height="160" rx="4" fill="url(#gold)" opacity="0.02" transform="rotate(45 200 200)"/>
    <rect x="120" y="120" width="160" height="160" rx="4" stroke="url(#gold)" stroke-width="1" fill="none" opacity="0.14" transform="rotate(45 200 200)"/>

    <!-- ═══ الطبقة ٥: الحلقة المركزية ═══ -->
    <circle cx="200" cy="200" r="88" stroke="url(#gold)" stroke-width="1.4" fill="none" opacity="0.14"/>
    <circle cx="200" cy="200" r="82" stroke="url(#gold)" stroke-width="0.5" fill="none" opacity="0.06" stroke-dasharray="2 5"/>

    <!-- ═══════════════════════════════════════════════════════ -->
    <!-- ═══ الميزان النبوي — قلب الشعار وعمود العدل ═══ -->
    <!-- ═══════════════════════════════════════════════════════ -->

    <!-- عمود الميزان الرئيسي -->
    <rect x="196" y="76" width="8" height="236" rx="4" fill="url(#pillar)" opacity="0.72" filter="url(#shadow)"/>
    <!-- خط بريق مركزي -->
    <rect x="199" y="80" width="2.5" height="228" rx="1.25" fill="#FFFDE8" opacity="0.12"/>
    <!-- ظل أيمن -->
    <rect x="202.5" y="80" width="1" height="228" rx="0.5" fill="#8B7224" opacity="0.08"/>

    <!-- ═══ تاج الحكمة — أعلى العمود ═══ -->
    <circle cx="200" cy="66" r="22" fill="url(#crownCore)" filter="url(#glSoft)" opacity="0.2"/>
    <circle cx="200" cy="66" r="18" fill="url(#crownCore)" filter="url(#glBig)" opacity="0.92"/>
    <circle cx="200" cy="66" r="11" fill="#0a0e18" opacity="0.35"/>
    <circle cx="200" cy="66" r="6" fill="url(#gemCore)" filter="url(#gl)" opacity="0.85"/>
    <!-- بريق التاج -->
    <circle cx="197" cy="62" r="2" fill="#fff" opacity="0.35"/>
    <circle cx="202" cy="64" r="0.9" fill="#fff" opacity="0.18"/>
    <!-- إشعاع التاج -->
    <line x1="200" y1="44" x2="200" y2="38" stroke="url(#goldV)" stroke-width="1.2" opacity="0.18"/>
    <line x1="214" y1="52" x2="220" y2="48" stroke="url(#gold)" stroke-width="0.9" opacity="0.1"/>
    <line x1="186" y1="52" x2="180" y2="48" stroke="url(#gold)" stroke-width="0.9" opacity="0.1"/>
    <!-- زخرفة V أسفل التاج -->
    <path d="M185,88 L200,97 L215,88" stroke="url(#gold)" stroke-width="2" fill="none" opacity="0.35"/>
    <path d="M190,92 L200,98 L210,92" stroke="url(#gold)" stroke-width="1.1" fill="none" opacity="0.18"/>

    <!-- ═══ ذراع الميزان الأفقي ═══ -->
    <rect x="84" y="158" width="232" height="8" rx="4" fill="url(#arm)" opacity="0.66" filter="url(#shadow)"/>
    <rect x="140" y="160.5" width="120" height="2.5" rx="1.25" fill="#FFFDE8" opacity="0.1"/>
    <rect x="84" y="164" width="232" height="1" rx="0.5" fill="#8B7224" opacity="0.06"/>
    <!-- نقطة الارتكاز المركزية -->
    <circle cx="200" cy="162" r="10" fill="url(#goldV)" opacity="0.65"/>
    <circle cx="200" cy="162" r="6" fill="#0a0e18" opacity="0.3"/>
    <circle cx="200" cy="162" r="3" fill="url(#gemCore)" opacity="0.5"/>
    <circle cx="198.5" cy="160.5" r="1" fill="#fff" opacity="0.18"/>

    <!-- ═══ الكفة اليمنى — كفة العدل ═══ -->
    <line x1="106" y1="163" x2="92" y2="228" stroke="url(#gold)" stroke-width="2.2" opacity="0.52"/>
    <line x1="156" y1="163" x2="170" y2="228" stroke="url(#gold)" stroke-width="2.2" opacity="0.52"/>
    <line x1="120" y1="163" x2="112" y2="222" stroke="url(#gold)" stroke-width="0.9" opacity="0.2"/>
    <line x1="142" y1="163" x2="150" y2="222" stroke="url(#gold)" stroke-width="0.9" opacity="0.2"/>
    <!-- حبل الأمانة -->
    <line x1="131" y1="163" x2="131" y2="220" stroke="url(#gold)" stroke-width="0.7" opacity="0.14" stroke-dasharray="2 4"/>
    <!-- الكفة -->
    <ellipse cx="131" cy="228" rx="44" ry="6" fill="url(#panGlow)"/>
    <path d="M84,228 C92,258 131,268 131,268 C131,268 170,258 178,228 Z" fill="rgba(212,175,55,0.08)" stroke="url(#gold)" stroke-width="2.4" opacity="0.55"/>
    <path d="M98,234 C108,252 131,260 131,260 C131,260 154,252 164,234" stroke="url(#gold)" stroke-width="0.9" fill="none" opacity="0.2"/>
    <path d="M110,238 C116,248 131,254 131,254 C131,254 146,248 152,238" stroke="url(#gold)" stroke-width="0.6" fill="none" opacity="0.1"/>
    <!-- نقاط التعليق -->
    <circle cx="106" cy="163" r="3.2" fill="url(#goldV)" opacity="0.4"/>
    <circle cx="156" cy="163" r="3.2" fill="url(#goldV)" opacity="0.4"/>

    <!-- ═══ الكفة اليسرى — كفة القسط ═══ -->
    <line x1="244" y1="163" x2="230" y2="228" stroke="url(#gold)" stroke-width="2.2" opacity="0.52"/>
    <line x1="294" y1="163" x2="308" y2="228" stroke="url(#gold)" stroke-width="2.2" opacity="0.52"/>
    <line x1="258" y1="163" x2="250" y2="222" stroke="url(#gold)" stroke-width="0.9" opacity="0.2"/>
    <line x1="280" y1="163" x2="288" y2="222" stroke="url(#gold)" stroke-width="0.9" opacity="0.2"/>
    <!-- حبل الأمانة -->
    <line x1="269" y1="163" x2="269" y2="220" stroke="url(#gold)" stroke-width="0.7" opacity="0.14" stroke-dasharray="2 4"/>
    <!-- الكفة -->
    <ellipse cx="269" cy="228" rx="44" ry="6" fill="url(#panGlow)"/>
    <path d="M222,228 C230,258 269,268 269,268 C269,268 308,258 316,228 Z" fill="rgba(212,175,55,0.08)" stroke="url(#gold)" stroke-width="2.4" opacity="0.55"/>
    <path d="M236,234 C246,252 269,260 269,260 C269,260 292,252 302,234" stroke="url(#gold)" stroke-width="0.9" fill="none" opacity="0.2"/>
    <path d="M248,238 C254,248 269,254 269,254 C269,254 284,248 290,238" stroke="url(#gold)" stroke-width="0.6" fill="none" opacity="0.1"/>
    <!-- نقاط التعليق -->
    <circle cx="244" cy="163" r="3.2" fill="url(#goldV)" opacity="0.4"/>
    <circle cx="294" cy="163" r="3.2" fill="url(#goldV)" opacity="0.4"/>

    <!-- ═══════════════════════════════════════════════════ -->
    <!-- ═══ الجوهرة الماسية — قلب المعادن النفيسة ═══ -->
    <!-- ═══════════════════════════════════════════════════ -->
    <!-- الإطار الخارجي -->
    <polygon points="200,126 236,200 200,274 164,200" fill="rgba(212,175,55,0.06)" stroke="url(#gold)" stroke-width="2.4" opacity="0.45"/>
    <!-- خطوط الانكسار -->
    <line x1="200" y1="126" x2="164" y2="200" stroke="url(#gold)" stroke-width="1.1" opacity="0.15"/>
    <line x1="200" y1="126" x2="236" y2="200" stroke="url(#gold)" stroke-width="1.1" opacity="0.15"/>
    <line x1="200" y1="274" x2="164" y2="200" stroke="url(#gold)" stroke-width="0.8" opacity="0.1"/>
    <line x1="200" y1="274" x2="236" y2="200" stroke="url(#gold)" stroke-width="0.8" opacity="0.1"/>
    <!-- الطبقة الوسطى -->
    <polygon points="200,150 220,200 200,250 180,200" fill="rgba(212,175,55,0.06)" stroke="url(#gold)" stroke-width="1.3" opacity="0.3"/>
    <!-- الطبقة الداخلية -->
    <polygon points="200,170 210,200 200,230 190,200" fill="rgba(212,175,55,0.05)" stroke="url(#gold)" stroke-width="0.8" opacity="0.18"/>
    <!-- خط الأفق -->
    <line x1="164" y1="200" x2="236" y2="200" stroke="url(#gold)" stroke-width="0.6" opacity="0.1"/>
    <!-- خطوط انكسار إضافية -->
    <line x1="200" y1="126" x2="200" y2="274" stroke="url(#gold)" stroke-width="0.5" opacity="0.06"/>
    <line x1="182" y1="163" x2="218" y2="237" stroke="url(#gold)" stroke-width="0.4" opacity="0.05"/>
    <line x1="218" y1="163" x2="182" y2="237" stroke="url(#gold)" stroke-width="0.4" opacity="0.05"/>

    <!-- النواة المتوهجة — نور العلم والأمانة -->
    <circle cx="200" cy="200" r="22" fill="url(#gemCore)" filter="url(#glSoft)" opacity="0.18"/>
    <circle cx="200" cy="200" r="17" fill="url(#gemCore)" filter="url(#glBig)" opacity="0.92"/>
    <circle cx="200" cy="200" r="9" fill="#FFFDE8" opacity="0.4"/>
    <circle cx="200" cy="200" r="4.5" fill="#FFFEF5" opacity="0.22"/>
    <!-- بريق النواة -->
    <circle cx="195" cy="194" r="3.5" fill="#fff" opacity="0.25"/>
    <circle cx="203" cy="197" r="1.6" fill="#fff" opacity="0.12"/>

    <!-- ═══ حرف الشين — هوية شيخة ═══ -->
    <text x="200" y="209" font-family="'Amiri','Cairo','Tajawal',serif" font-size="26" fill="url(#gemCore)" text-anchor="middle" opacity="0.6" font-weight="700" filter="url(#gl)">ش</text>

    <!-- ═══ القاعدة — الأساس الراسخ (الكتاب والسنة) ═══ -->
    <rect x="196" y="312" width="8" height="16" rx="3" fill="url(#gold)" opacity="0.52"/>
    <!-- المنصة العلوية -->
    <rect x="154" y="328" width="92" height="8" rx="4" fill="url(#arm)" opacity="0.58"/>
    <rect x="172" y="330" width="56" height="2.5" rx="1.25" fill="#FFFDE8" opacity="0.08"/>
    <!-- القاعدة الكبرى -->
    <rect x="138" y="340" width="124" height="7" rx="3.5" fill="url(#gold)" opacity="0.42"/>
    <rect x="162" y="342" width="76" height="2" rx="1" fill="#FFFDE8" opacity="0.06"/>
    <!-- الأرجل -->
    <line x1="166" y1="336" x2="150" y2="347" stroke="url(#gold)" stroke-width="2.4" opacity="0.3"/>
    <line x1="234" y1="336" x2="250" y2="347" stroke="url(#gold)" stroke-width="2.4" opacity="0.3"/>
    <circle cx="150" cy="347" r="2" fill="url(#gold)" opacity="0.18"/>
    <circle cx="250" cy="347" r="2" fill="url(#gold)" opacity="0.18"/>

    <!-- ═══ نقاط البوصلة الأربع — الشمول العالمي ═══ -->
    <circle cx="200" cy="8" r="5" fill="url(#goldV)" filter="url(#gl)" opacity="0.45"/>
    <circle cx="200" cy="392" r="4.5" fill="url(#gold)" filter="url(#gl)" opacity="0.3"/>
    <circle cx="8" cy="200" r="4.5" fill="url(#gold)" filter="url(#gl)" opacity="0.3"/>
    <circle cx="392" cy="200" r="4.5" fill="url(#gold)" filter="url(#gl)" opacity="0.3"/>
    <!-- الاتجاهات الفرعية -->
    <circle cx="54" cy="54" r="3" fill="url(#gold)" opacity="0.16"/>
    <circle cx="346" cy="54" r="3" fill="url(#gold)" opacity="0.16"/>
    <circle cx="54" cy="346" r="3" fill="url(#gold)" opacity="0.16"/>
    <circle cx="346" cy="346" r="3" fill="url(#gold)" opacity="0.16"/>
    <!-- خطوط بوصلة خفيفة -->
    <line x1="200" y1="14" x2="200" y2="48" stroke="url(#gold)" stroke-width="0.5" opacity="0.06"/>
    <line x1="200" y1="352" x2="200" y2="387" stroke="url(#gold)" stroke-width="0.5" opacity="0.06"/>
    <line x1="14" y1="200" x2="48" y2="200" stroke="url(#gold)" stroke-width="0.5" opacity="0.06"/>
    <line x1="352" y1="200" x2="387" y2="200" stroke="url(#gold)" stroke-width="0.5" opacity="0.06"/>

    <!-- ═══ حلقة الآية القرآنية ═══ -->
    <g opacity="0.1">
        <path id="qPath" d="M200,112 A88,88 0 1,1 199.9,112" fill="none"/>
        <text font-family="'Amiri',serif" font-size="9" fill="#D4AF37">
            <textPath href="#qPath" startOffset="0%">﴿ وَأَقِيمُوا الْوَزْنَ بِالْقِسْطِ وَلَا تُخْسِرُوا الْمِيزَانَ ﴾ ۞ ﴿ وَأَحَلَّ اللَّهُ الْبَيْعَ وَحَرَّمَ الرِّبَا ﴾</textPath>
        </text>
    </g>

    <!-- ═══ التوقيع ═══ -->
    <text x="200" y="378" font-family="'Amiri','Cairo','Tajawal',serif" font-size="18" fill="url(#gold)" text-anchor="middle" opacity="0.25" font-weight="700" letter-spacing="5">شيخة</text>
    <text x="200" y="392" font-family="'Cairo','Tajawal',sans-serif" font-size="7.5" fill="url(#gold)" text-anchor="middle" opacity="0.12" font-weight="800" letter-spacing="3.5">SHEIKHA</text>
</svg>
